<?xml version="1.0" encoding="UTF-8"?>
<svg version="1.1" xmlns="http://www.w3.org/2000/svg" width="330" height="90">
<path d="M0 0 C8.63389758 5.41210394 14.7477084 12.63614253 18.1640625 22.2890625 C20.47345394 32.54103386 20.64622103 44.8668776 15 54 C9.01719751 63.27686315 0.83126414 70.18018184 -10 73 C-22.30668521 74.33970749 -32.45235675 73.11490902 -42.6875 65.875 C-49.69162315 60.07335463 -55.57775658 52.13029484 -57 43 C-58.20120111 29.41641747 -56.91981863 18.82414822 -47.9765625 8.03515625 C-44.68878449 4.64991447 -41.13087951 2.25009828 -37 0 C-36.26265625 -0.41378906 -35.5253125 -0.82757813 -34.765625 -1.25390625 C-24.12151072 -6.37951162 -10.28244426 -5.61873502 0 0 Z " fill="#E3C222" transform="translate(69,11)"/>
<path d="M0 0 C8.63389758 5.41210394 14.7477084 12.63614253 18.1640625 22.2890625 C20.47345394 32.54103386 20.64622103 44.8668776 15 54 C9.01719751 63.27686315 0.83126414 70.18018184 -10 73 C-22.30668521 74.33970749 -32.45235675 73.11490902 -42.6875 65.875 C-49.69162315 60.07335463 -55.57775658 52.13029484 -57 43 C-58.20120111 29.41641747 -56.91981863 18.82414822 -47.9765625 8.03515625 C-44.68878449 4.64991447 -41.13087951 2.25009828 -37 0 C-36.26265625 -0.41378906 -35.5253125 -0.82757813 -34.765625 -1.25390625 C-24.12151072 -6.37951162 -10.28244426 -5.61873502 0 0 Z M-19 -1 C-19 1.64 -19 4.28 -19 7 C-19.763125 6.21625 -20.52625 5.4325 -21.3125 4.625 C-23.90891805 1.92742283 -23.90891805 1.92742283 -27 0 C-29.64632287 0.3121764 -29.64632287 0.3121764 -32 1 C-31.47731534 3.76276177 -30.89130413 6.3260876 -30 9 C-30.886875 8.505 -31.77375 8.01 -32.6875 7.5 C-35.91370576 6.03907664 -37.54492833 5.53309842 -41 6 C-41.99 6.66 -42.98 7.32 -44 8 C-42.62845496 10.95409701 -41.01136276 13.44008376 -39 16 C-40.85625 15.6596875 -40.85625 15.6596875 -42.75 15.3125 C-45.86853111 14.90333102 -46.68127899 14.81673542 -49.5 16.4375 C-49.995 16.953125 -50.49 17.46875 -51 18 C-50.80528889 19.94999129 -50.80528889 19.94999129 -50 22 C-48.03327085 23.1500831 -48.03327085 23.1500831 -46 24 C-45.67 24.66 -45.34 25.32 -45 26 C-46.11375 26.12375 -47.2275 26.2475 -48.375 26.375 C-52.03103677 26.6465813 -52.03103677 26.6465813 -54 29 C-54.16687448 31.58354218 -54.16687448 31.58354218 -54 34 C-51.36 34 -48.72 34 -46 34 C-48.33333333 36.33333333 -50.66666667 38.66666667 -53 41 C-53.16681109 44.08347826 -53.16681109 44.08347826 -53 47 C-49.92757947 48.40096246 -49.92757947 48.40096246 -46.8125 46.5625 C-45.884375 46.046875 -44.95625 45.53125 -44 45 C-44.495 45.680625 -44.99 46.36125 -45.5 47.0625 C-47.30365111 50.59465009 -47.23021353 53.08636991 -47 57 C-45.68 57.66 -44.36 58.32 -43 59 C-41.35 57.68 -39.7 56.36 -38 55 C-38.061875 56.2375 -38.12375 57.475 -38.1875 58.75 C-38.1875 61.64733633 -38.06542314 62.87538449 -36.6875 65.5 C-35.00259517 67.33218192 -35.00259517 67.33218192 -32 67 C-31.71125 66.195625 -31.4225 65.39125 -31.125 64.5625 C-30 62 -30 62 -28 61 C-27.938125 61.9075 -27.87625 62.815 -27.8125 63.75 C-26.80517809 67.77928762 -25.47994048 68.84575113 -22 71 C-21.01 71 -20.02 71 -19 71 C-19 68.03 -19 65.06 -19 62 C-17.32210811 63.67789189 -15.6692612 65.38586194 -14.125 67.1875 C-12.1134327 69.25651619 -12.1134327 69.25651619 -9.25 69.25 C-8.5075 69.1675 -7.765 69.085 -7 69 C-5.9673198 66.21176345 -5.95490707 65.1322726 -6.9375 62.25 C-7.288125 61.5075 -7.63875 60.765 -8 60 C-7.29875 60.495 -6.5975 60.99 -5.875 61.5 C-2.57245526 63.22306682 -0.67482275 63.39943726 3 63 C3.99 62.34 4.98 61.68 6 61 C4.62845496 58.04590299 3.01136276 55.55991624 1 53 C2.2375 53.226875 3.475 53.45375 4.75 53.6875 C7.86853111 54.09666898 8.68127899 54.18326458 11.5 52.5625 C11.995 52.046875 12.49 51.53125 13 51 C12.80528889 49.05000871 12.80528889 49.05000871 12 47 C10.03327085 45.8499169 10.03327085 45.8499169 8 45 C7.67 44.34 7.34 43.68 7 43 C8.670625 42.8453125 8.670625 42.8453125 10.375 42.6875 C11.57125 42.460625 12.7675 42.23375 14 42 C16.36980013 39.04622502 16.36980013 39.04622502 16 35 C13.36 35 10.72 35 8 35 C8.78375 34.236875 9.5675 33.47375 10.375 32.6875 C14.02025581 29.09220999 14.02025581 29.09220999 15.125 24.3125 C15.08375 23.549375 15.0425 22.78625 15 22 C11.23375329 20.74458443 9.62811066 21.62938042 6 23 C6.495 22.319375 6.99 21.63875 7.5 20.9375 C9.30365111 17.40534991 9.23021353 14.91363009 9 11 C7.26424351 10.12563582 7.26424351 10.12563582 5 10 C2.24743206 11.85164036 2.24743206 11.85164036 0 14 C0.05220703 13.07767578 0.05220703 13.07767578 0.10546875 12.13671875 C0.14607422 10.92435547 0.14607422 10.92435547 0.1875 9.6875 C0.22230469 8.88699219 0.25710937 8.08648437 0.29296875 7.26171875 C0.18102011 4.92679347 0.18102011 4.92679347 -1.375 3.1875 C-2.96527869 1.73526713 -2.96527869 1.73526713 -5.1875 2.3125 C-5.785625 2.539375 -6.38375 2.76625 -7 3 C-7.33 4.65 -7.66 6.3 -8 8 C-8.66 8 -9.32 8 -10 8 C-10.1546875 6.6078125 -10.1546875 6.6078125 -10.3125 5.1875 C-10.77772511 2.08505586 -10.77772511 2.08505586 -12.25 0.125 C-14.58213386 -1.37422891 -16.28371825 -1.22023906 -19 -1 Z " fill="#683436" transform="translate(69,11)"/>
<path d="M0 0 C0 1.65 0 3.3 0 5 C-1.134375 5.4125 -2.26875 5.825 -3.4375 6.25 C-7.09543384 7.56685398 -7.09543384 7.56685398 -7.9375 10.1875 C-7.958125 10.785625 -7.97875 11.38375 -8 12 C-7.62875 11.505 -7.2575 11.01 -6.875 10.5 C-4.25305607 8.40244486 -2.26157528 8.78256165 1 9 C1 9.99 1 10.98 1 12 C0.15115234 12.25523438 0.15115234 12.25523438 -0.71484375 12.515625 C-1.44832031 12.75796875 -2.18179688 13.0003125 -2.9375 13.25 C-3.66839844 13.48203125 -4.39929688 13.7140625 -5.15234375 13.953125 C-7.20570556 14.8507553 -7.20570556 14.8507553 -7.75390625 17.109375 C-7.83511719 17.73328125 -7.91632812 18.3571875 -8 19 C-7.34 19 -6.68 19 -6 19 C-6 18.01 -6 17.02 -6 16 C-3.69 16 -1.38 16 1 16 C0.67 16.99 0.34 17.98 0 19 C1.485 19.99 1.485 19.99 3 21 C-0.63 21 -4.26 21 -8 21 C-8 22.65 -8 24.3 -8 26 C-7.62875 25.505 -7.2575 25.01 -6.875 24.5 C-4.25305607 22.40244486 -2.26157528 22.78256165 1 23 C1.144375 23.78375 1.28875 24.5675 1.4375 25.375 C1.87798925 27.96421018 1.87798925 27.96421018 3 30 C2.34 30.66 1.68 31.32 1 32 C0.67 32 0.34 32 0 32 C-0.18372036 36.04184793 0.10186743 38.4568192 2 42 C1.505 42.99 1.505 42.99 1 44 C1.99 43.34 2.98 42.68 4 42 C5.70884005 43.62339805 7.37446717 45.29319053 9 47 C9 47.66 9 48.32 9 49 C5.37 49 1.74 49 -2 49 C-2 48.01 -2 47.02 -2 46 C-2.66 46 -3.32 46 -4 46 C-4 46.66 -4 47.32 -4 48 C-4.45375 48.433125 -4.9075 48.86625 -5.375 49.3125 C-7.34309231 51.35628817 -8.06726871 53.34530324 -9 56 C-10.875 55.6875 -10.875 55.6875 -13 55 C-15.67927341 50.98108988 -15.15601248 48.75838077 -15 44 C-16.65 45.32 -18.3 46.64 -20 48 C-21.32 47.34 -22.64 46.68 -24 46 C-24.2954439 40.97745369 -23.98514628 38.10457614 -21 34 C-21.928125 34.515625 -22.85625 35.03125 -23.8125 35.5625 C-27 37 -27 37 -30 36 C-30.375 33.3125 -30.375 33.3125 -30 30 C-28.184967 27.98874721 -26.20335164 26.61878896 -24 25 C-23.67 24.34 -23.34 23.68 -23 23 C-25.64 23 -28.28 23 -31 23 C-31.25 20.6875 -31.25 20.6875 -31 18 C-29.3125 16.1875 -29.3125 16.1875 -27 15 C-25.33398932 14.95324342 -23.66583993 14.94751085 -22 15 C-21.96132813 16.34191406 -21.96132813 16.34191406 -21.921875 17.7109375 C-21.5531813 25.57081687 -20.50234789 31.93014425 -17 39 C-17.56008612 37.31974165 -18.13342424 35.64328026 -18.75390625 33.984375 C-21.79907069 25.5697177 -21.45907305 19.21153863 -18 11 C-14.54143529 4.2158923 -7.96288696 -2.37341781 0 0 Z " fill="#FBE126" transform="translate(46,22)"/>
<path d="M0 0 C4.62 0 9.24 0 14 0 C14 2.97 14 5.94 14 9 C15.65 9 17.3 9 19 9 C19 6.03 19 3.06 19 0 C21.97 0 24.94 0 28 0 C28.33 0.66 28.66 1.32 29 2 C29.66 1.34 30.32 0.68 31 0 C33.00720923 0.28674418 35.0085944 0.61866701 37 1 C37.33 0.67 37.66 0.34 38 0 C40.82416382 -0.12663091 43.61294793 -0.18520548 46.4375 -0.1875 C47.22705078 -0.19974609 48.01660156 -0.21199219 48.83007812 -0.22460938 C50.88807435 -0.22987279 52.94562009 -0.12206285 55 0 C57 2 57 2 57.125 5.125 C57.08375 6.07375 57.0425 7.0225 57 8 C57.33 5.36 57.66 2.72 58 0 C58.70125 0.185625 59.4025 0.37125 60.125 0.5625 C63.354888 1.0540047 65.81035098 0.62406176 69 0 C69.99 0 70.98 0 72 0 C73.84271484 -0.03480469 73.84271484 -0.03480469 75.72265625 -0.0703125 C77.16926658 -0.08887579 78.61588139 -0.10709314 80.0625 -0.125 C80.79533203 -0.14175781 81.52816406 -0.15851562 82.28320312 -0.17578125 C84.18962232 -0.1932874 86.09631591 -0.10357367 88 0 C88.99 0.99 88.99 0.99 90 2 C90.66 1.34 91.32 0.68 92 0 C93.32 0 94.64 0 96 0 C95.731875 0.66 95.46375 1.32 95.1875 2 C93.74294953 5.64939067 92.37128822 9.32245433 91 13 C90.01 13 89.02 13 88 13 C87.01 9.04 87.01 9.04 86 5 C84.68 4.67 83.36 4.34 82 4 C82 6.97 82 9.94 82 13 C80.68 13 79.36 13 78 13 C78 10.03 78 7.06 78 4 C77.34 4 76.68 4 76 4 C76 6.97 76 9.94 76 13 C74.68 13 73.36 13 72 13 C71.505 12.01 71.505 12.01 71 11 C70.34 11.66 69.68 12.32 69 13 C66.66055264 12.71269945 64.3260857 12.38063221 62 12 C61.67 12.33 61.34 12.66 61 13 C55.58823529 13.47058824 55.58823529 13.47058824 53.125 11.5 C52.75375 11.005 52.3825 10.51 52 10 C51.67 10.99 51.34 11.98 51 13 C49.68 13 48.36 13 47 13 C47 10.03 47 7.06 47 4 C46.34 4 45.68 4 45 4 C45 6.64 45 9.28 45 12 C43.68 12.33 42.36 12.66 41 13 C41 10.03 41 7.06 41 4 C39.6078125 4.2784375 39.6078125 4.2784375 38.1875 4.5625 C35 5 35 5 32 4 C32 5.65 32 7.3 32 9 C32.99 8.34 33.98 7.68 35 7 C36.32 7 37.64 7 39 7 C38.3125 9.4375 38.3125 9.4375 37 12 C34.5625 12.9375 34.5625 12.9375 32 13 C31.01 12.34 30.02 11.68 29 11 C28.67 11.66 28.34 12.32 28 13 C18.76 13 9.52 13 0 13 C0 8.71 0 4.42 0 0 Z M8 4 C8.33 5.32 8.66 6.64 9 8 C7.35 8 5.7 8 4 8 C4 8.33 4 8.66 4 9 C5.98 9 7.96 9 10 9 C10 7.35 10 5.7 10 4 C9.34 4 8.68 4 8 4 Z M66 4 C65.67 5.32 65.34 6.64 65 8 C65.99 8.33 66.98 8.66 68 9 C68 8.34 68 7.68 68 7 C69.32 7 70.64 7 72 7 C72 6.34 72 5.68 72 5 C69.03 4.505 69.03 4.505 66 4 Z M22 8 C22 8.33 22 8.66 22 9 C23.98 9 25.96 9 28 9 C28 8.67 28 8.34 28 8 C26.02 8 24.04 8 22 8 Z " fill="#FFFFFF" transform="translate(166,62)"/>
<path d="M0 0 C2.9375 2.5 2.9375 2.5 5 5 C5.33 4.67 5.66 4.34 6 4 C8.33333333 4 10.66666667 4 13 4 C15.5 3.5 15.5 3.5 18 3 C18.66 3.33 19.32 3.66 20 4 C22.3400417 3.71758117 24.67504723 3.38749213 27 3 C27.33 2.01 27.66 1.02 28 0 C28.99 0 29.98 0 31 0 C31.495 1.98 31.495 1.98 32 4 C33.32 4 34.64 4 36 4 C36.495 4.99 36.495 4.99 37 6 C37.66 5.34 38.32 4.68 39 4 C41.8984375 3.6640625 41.8984375 3.6640625 45.375 3.625 C46.51710937 3.59664062 47.65921875 3.56828125 48.8359375 3.5390625 C52.56187462 4.08185334 53.6846501 5.11436687 56 8 C56.33 6.68 56.66 5.36 57 4 C60.3 4 63.6 4 67 4 C67.495 5.98 67.495 5.98 68 8 C68.226875 8.86625 68.45375 9.7325 68.6875 10.625 C68.790625 11.40875 68.89375 12.1925 69 13 C67 15 67 15 64.50390625 15.1953125 C63.53324219 15.17210937 62.56257813 15.14890625 61.5625 15.125 C60.59441406 15.10695313 59.62632812 15.08890625 58.62890625 15.0703125 C57.76136719 15.04710937 56.89382812 15.02390625 56 15 C55.01 15 54.02 15 53 15 C11 15 11 15 8 14.8125 C7.01 14.874375 6.02 14.93625 5 15 C4.01 16.485 4.01 16.485 3 18 C-2.27597734 19.26623456 -6.72745789 18.83250665 -12 18 C-12.93423645 14.98968256 -13.04449911 14.13349732 -12 11 C-11.87915996 9.66807427 -11.77595902 8.33446749 -11.6875 7 C-11.34474192 4.21700903 -11.18312212 3.22538107 -9.375 1 C-5.97047997 -0.43348212 -3.65951893 -0.51361669 0 0 Z M15 7 C15 8.65 15 10.3 15 12 C15.66 12 16.32 12 17 12 C17 10.35 17 8.7 17 7 C16.34 7 15.68 7 15 7 Z M50 8 C51 12 51 12 51 12 Z M28 10 C29 12 29 12 29 12 Z M-7 13 C-3 14 -3 14 -3 14 Z " fill="#FFFFFF" transform="translate(118,38)"/>
<path d="M0 0 C4.5076467 0.53031138 7.41954788 2.25221116 11 5 C11 5.66 11 6.32 11 7 C11.66 7 12.32 7 13 7 C18.06474686 14.85035763 19.05148051 21.75573383 18 31 C17.24813679 33.92201383 16.3118479 36.26698354 15 39 C16.98 36.525 16.98 36.525 19 34 C19 34.66 19 35.32 19 36 C20.98 36.33 22.96 36.66 25 37 C25.33 38.32 25.66 39.64 26 41 C24.5 42.5625 24.5 42.5625 22 44 C19.22562457 43.96823234 16.74713533 43.50364148 14 43 C14.845625 43.928125 15.69125 44.85625 16.5625 45.8125 C18.00390625 47.39453125 18.00390625 47.39453125 19 49 C18 52 18 52 16 53 C13.125 53.375 13.125 53.375 10 53 C7.625 50.5 7.625 50.5 6 48 C6.495 47.505 6.495 47.505 7 47 C5.02 47.66 3.04 48.32 1 49 C-0.49564164 47.50435836 -0.42484009 45.99532197 -0.75390625 43.921875 C-0.88603516 43.09042969 -1.01816406 42.25898437 -1.15429688 41.40234375 C-1.28900391 40.52707031 -1.42371094 39.65179688 -1.5625 38.75 C-1.77036133 37.46029297 -1.77036133 37.46029297 -1.98242188 36.14453125 C-2.62042443 32.06508637 -3.19691527 28.14378229 -3 24 C-0.69 24 1.62 24 4 24 C4 24.99 4 25.98 4 27 C4.66 27 5.32 27 6 27 C5.80811844 25.060491 5.80811844 25.060491 5 23 C3.16016576 21.65768558 3.16016576 21.65768558 0.9375 20.75 C-0.16271484 20.24726562 -0.16271484 20.24726562 -1.28515625 19.734375 C-1.85105469 19.49203125 -2.41695312 19.2496875 -3 19 C-3 18.34 -3 17.68 -3 17 C-0.69 17 1.62 17 4 17 C4 17.99 4 18.98 4 20 C4.66 20 5.32 20 6 20 C5.81266183 18.03838102 5.81266183 18.03838102 5 16 C3.15272433 14.86929556 3.15272433 14.86929556 0.9375 14.25 C0.20402344 14.00765625 -0.52945313 13.7653125 -1.28515625 13.515625 C-1.85105469 13.34546875 -2.41695312 13.1753125 -3 13 C-3 12.01 -3 11.02 -3 10 C-1.02 10 0.96 10 3 10 C3 10.99 3 11.98 3 13 C3.99 13 4.98 13 6 13 C6 11.35 6 9.7 6 8 C4.3603125 7.5359375 4.3603125 7.5359375 2.6875 7.0625 C0.44592006 6.41662103 -1.7869351 5.7376883 -4 5 C-4 4.34 -4 3.68 -4 3 C-3.01 3 -2.02 3 -1 3 C-0.67 2.01 -0.34 1.02 0 0 Z " fill="#FBE225" transform="translate(56,21)"/>
<path d="M0 0 C0.78117187 0.39832031 0.78117187 0.39832031 1.578125 0.8046875 C4.61030108 2.30121311 7.67808137 3.71191743 10.75 5.125 C11.92046875 5.66382813 13.0909375 6.20265625 14.296875 6.7578125 C15.18890625 7.16773438 16.0809375 7.57765625 17 8 C17 9.65 17 11.3 17 13 C16.01 13 15.02 13 14 13 C14 12.01 14 11.02 14 10 C12.02 10 10.04 10 8 10 C8 10.99 8 11.98 8 13 C10.97 13.99 13.94 14.98 17 16 C17 17.32 17 18.64 17 20 C16.34 20 15.68 20 15 20 C15 19.01 15 18.02 15 17 C12.69 17 10.38 17 8 17 C10.54456151 19.96865509 13.48994665 21.3619751 17 23 C17 24.32 17 25.64 17 27 C16.34 27 15.68 27 15 27 C15 26.01 15 25.02 15 24 C12.69 24 10.38 24 8 24 C9.32 31.92 10.64 39.84 12 48 C13.98 47.34 15.96 46.68 18 46 C18.99 46 19.98 46 21 46 C19.625 48 19.625 48 18 50 C17.34 50 16.68 50 16 50 C16.350625 50.7425 16.70125 51.485 17.0625 52.25 C18.04509293 55.1322726 18.0326802 56.21176345 17 59 C14.75 59.25 14.75 59.25 12 59 C9.875 57.1875 9.875 57.1875 8 55 C7.01 54.01 6.02 53.02 5 52 C5 54.97 5 57.94 5 61 C1.49849196 60.70820766 0.21713533 60.21713533 -2.3125 57.6875 C-4 55 -4 55 -4 51 C-4.66 50.67 -5.32 50.34 -6 50 C-4.515 49.505 -4.515 49.505 -3 49 C-3 48.34 -3 47.68 -3 47 C-2.34 47 -1.68 47 -1 47 C-1 47.99 -1 48.98 -1 50 C2.63 50 6.26 50 10 50 C8.35 48.02 6.7 46.04 5 44 C3.35 44.99 1.7 45.98 0 47 C0.66 45.02 1.32 43.04 2 41 C1.34 40.34 0.68 39.68 0 39 C-0.25 36 -0.25 36 0 33 C0.66 32.34 1.32 31.68 2 31 C2 30.67 2 30.34 2 30 C2 28 2 26 2 24 C0.02 24 -1.96 24 -4 24 C-4.33 24.99 -4.66 25.98 -5 27 C-5.66 27 -6.32 27 -7 27 C-7 25.35 -7 23.7 -7 22 C-5.6078125 21.87625 -5.6078125 21.87625 -4.1875 21.75 C-0.91490121 21.29742448 -0.91490121 21.29742448 0.875 18.9375 C1.24625 18.298125 1.6175 17.65875 2 17 C-0.31 17 -2.62 17 -5 17 C-5 17.99 -5 18.98 -5 20 C-5.66 20 -6.32 20 -7 20 C-6.8125 17.625 -6.8125 17.625 -6 15 C-3.11090151 13.40339294 -1.30941204 13 2 13 C2 12.01 2 11.02 2 10 C0.02 10 -1.96 10 -4 10 C-4.33 10.99 -4.66 11.98 -5 13 C-5.66 13 -6.32 13 -7 13 C-6.75 10.625 -6.75 10.625 -6 8 C-3.43689172 6.2058242 -2.16880694 6 1 6 C0.67 4.02 0.34 2.04 0 0 Z " fill="#B7861D" transform="translate(45,21)"/>
<path d="M0 0 C0.33 -0.33 0.66 -0.66 1 -1 C3.18639453 -1.07258946 5.37500389 -1.08373783 7.5625 -1.0625 C9.35880859 -1.04896484 9.35880859 -1.04896484 11.19140625 -1.03515625 C12.11824219 -1.02355469 13.04507813 -1.01195312 14 -1 C14.33 -0.34 14.66 0.32 15 1 C15.66 0.34 16.32 -0.32 17 -1 C20.625 -1.125 20.625 -1.125 24 -1 C24 1.97 24 4.94 24 8 C24.99 7.67 25.98 7.34 27 7 C27.103125 6.05125 27.20625 5.1025 27.3125 4.125 C28 1 28 1 31 -1 C36.55555556 -0.44444444 36.55555556 -0.44444444 38 1 C38.33 0.34 38.66 -0.32 39 -1 C42.875 -0.125 42.875 -0.125 44 1 C44.33 0.34 44.66 -0.32 45 -1 C46.32 -1 47.64 -1 49 -1 C49 3.29 49 7.58 49 12 C47.68 11.67 46.36 11.34 45 11 C42.84365964 11 41.07553648 11.4465236 39 12 C38.505 11.01 38.505 11.01 38 10 C37.01 10.66 36.02 11.32 35 12 C32.99279077 11.71325582 30.99369031 11.36920191 29 11 C25.99791152 10.90679791 23.00261739 10.93994765 20 11 C19.67 9.02 19.34 7.04 19 5 C18.34 7.31 17.68 9.62 17 12 C15.68 11.67 14.36 11.34 13 11 C12.34 8.69 11.68 6.38 11 4 C9.90341064 7.28976808 10.20046862 8.71303767 11 12 C7.7 12 4.4 12 1 12 C0.67 11.34 0.34 10.68 0 10 C-0.66 10.66 -1.32 11.32 -2 12 C-3.32 12 -4.64 12 -6 12 C-6 12.99 -6 13.98 -6 15 C-6.66 15 -7.32 15 -8 15 C-9.36011539 12.27976922 -9.2062431 10.0338119 -9.25 7 C-9.27578125 5.9275 -9.3015625 4.855 -9.328125 3.75 C-9.21984375 2.8425 -9.1115625 1.935 -9 1 C-5.29658604 -1.46894264 -4.19547676 -0.82085415 0 0 Z M-5 3 C-5.33 4.32 -5.66 5.64 -6 7 C-5.01 7.33 -4.02 7.66 -3 8 C-3 7.34 -3 6.68 -3 6 C-1.68 6 -0.36 6 1 6 C1 5.34 1 4.68 1 4 C-1.97 3.505 -1.97 3.505 -5 3 Z M32 3 C31.67 4.32 31.34 5.64 31 7 C32.32 7 33.64 7 35 7 C35 5.68 35 4.36 35 3 C34.01 3 33.02 3 32 3 Z " fill="#FFFFFF" transform="translate(114,63)"/>
<path d="M0 0 C7.42857143 -0.28571429 7.42857143 -0.28571429 11 2 C11.66 1.34 12.32 0.68 13 0 C16.5 0.1875 16.5 0.1875 20 1 C20.66 1.99 21.32 2.98 22 4 C22.99 2.68 23.98 1.36 25 0 C26.875 0.1875 26.875 0.1875 29 1 C30.25 3.5625 30.25 3.5625 31 6 C31.33 4.02 31.66 2.04 32 0 C38.625 -0.125 38.625 -0.125 42 1 C42.33 0.67 42.66 0.34 43 0 C46.54622103 -0.39402456 48.398846 -0.38535513 51.4375 1.5625 C53 4 53 4 52.9375 7.625 C52 11 52 11 49 13 C46.58984375 13.30078125 46.58984375 13.30078125 43.9375 13.3125 C43.05964844 13.32925781 42.18179688 13.34601563 41.27734375 13.36328125 C40.52582031 13.24339844 39.77429688 13.12351562 39 13 C38.34 12.01 37.68 11.02 37 10 C36.67 10.99 36.34 11.98 36 13 C33.69 13 31.38 13 29 13 C28.67 12.01 28.34 11.02 28 10 C27.01 10 26.02 10 25 10 C24.67 10.99 24.34 11.98 24 13 C23.278125 12.814375 22.55625 12.62875 21.8125 12.4375 C19.03129939 11.8310792 19.03129939 11.8310792 16.4375 12.5625 C13.54137683 13.08231698 12.44300601 12.53818897 10 11 C9.01 11.66 8.02 12.32 7 13 C4.66800612 13.07905064 2.33167378 13.08798769 0 13 C0 8.71 0 4.42 0 0 Z M14 4 C14 5.65 14 7.3 14 9 C14.99 9 15.98 9 17 9 C17.33 8.01 17.66 7.02 18 6 C17.67 5.34 17.34 4.68 17 4 C16.01 4 15.02 4 14 4 Z M46 4 C46 5.65 46 7.3 46 9 C46.99 8.67 47.98 8.34 49 8 C48.67 6.68 48.34 5.36 48 4 C47.34 4 46.68 4 46 4 Z M40 7 C40.66 7.66 41.32 8.32 42 9 C42 8.34 42 7.68 42 7 C41.34 7 40.68 7 40 7 Z " fill="#FFFFFF" transform="translate(264,62)"/>
<path d="M0 0 C1.12756159 2.49674352 1 4.23473727 1 7 C1.04125 7.78375 1.0825 8.5675 1.125 9.375 C0.97388881 12.54833507 0.31979515 15.68020485 -2 18 C-9.36633663 18.47524752 -9.36633663 18.47524752 -12 16.5 C-12.33 16.005 -12.66 15.51 -13 15 C-13.33 16.32 -13.66 17.64 -14 19 C-17.63 19 -21.26 19 -25 19 C-25 18.01 -25 17.02 -25 16 C-24.34 15.67 -23.68 15.34 -23 15 C-24.32 14.34 -25.64 13.68 -27 13 C-27.66 13.66 -28.32 14.32 -29 15 C-36.10659898 15.67681895 -36.10659898 15.67681895 -39.0625 13.4375 C-40.38644709 9.99523756 -39.7637304 7.56407522 -39 4 C-38.855625 3.21625 -38.71125 2.4325 -38.5625 1.625 C-38 0 -38 0 -36 -1 C-32.7252119 -1.28476418 -30.63688445 -1.32704877 -27.6875 0.1875 C-25.62139742 2.40664722 -25.32157204 4.02545866 -25 7 C-24.67 5.68 -24.34 4.36 -24 3 C-17.6 2.63076923 -17.6 2.63076923 -14.5625 4.5 C-14.046875 4.995 -13.53125 5.49 -13 6 C-12.67 4.02 -12.34 2.04 -12 0 C-7.3083829 -2.01069304 -4.6195908 -2.36351157 0 0 Z M-9 2 C-9 2.33 -9 2.66 -9 3 C-7.02 3 -5.04 3 -3 3 C-3 2.67 -3 2.34 -3 2 C-4.98 2 -6.96 2 -9 2 Z M-31 5 C-30.67 6.32 -30.34 7.64 -30 9 C-31.98 9 -33.96 9 -36 9 C-36 9.66 -36 10.32 -36 11 C-34.00045254 11.04254356 -31.99958364 11.04080783 -30 11 C-28.70366379 9.93354885 -28.70366379 9.93354885 -28.9375 7.4375 C-28.958125 6.633125 -28.97875 5.82875 -29 5 C-29.66 5 -30.32 5 -31 5 Z M-3 7 C-3.99 7.66 -4.98 8.32 -6 9 C-6 9.66 -6 10.32 -6 11 C-4.68 10.67 -3.36 10.34 -2 10 C-2.33 9.01 -2.66 8.02 -3 7 Z M-20 8 C-20.33 9.32 -20.66 10.64 -21 12 C-17.98968256 12.93423645 -17.13349732 13.04449911 -14 12 C-14 10.68 -14 9.36 -14 8 C-15.98 8 -17.96 8 -20 8 Z M-10 9 C-9 12 -9 12 -9 12 Z " fill="#FFFFFF" transform="translate(198,15)"/>
<path d="M0 0 C2.32715457 1.46336358 4.01292063 3.06138598 6 5 C6.99 4.34 7.98 3.68 9 3 C15.27618412 2.43962642 15.27618412 2.43962642 17.9375 4.5 C18.288125 4.995 18.63875 5.49 19 6 C19.474375 5.505 19.94875 5.01 20.4375 4.5 C24.20358351 2.29546331 27.73459379 2.75391887 32 3 C33.625 5.625 33.625 5.625 35 9 C34.1875 12.375 34.1875 12.375 33 15 C24.96498906 16.45295405 24.96498906 16.45295405 20.9375 14.5625 C20.298125 14.046875 19.65875 13.53125 19 13 C18.87625 13.639375 18.7525 14.27875 18.625 14.9375 C18.315625 15.9584375 18.315625 15.9584375 18 17 C14.79938511 18.60030744 11.46211964 18.64316057 8 18 C5.5 15.5 5.5 15.5 4 13 C3.67 13.66 3.34 14.32 3 15 C1.07421875 15.51953125 1.07421875 15.51953125 -1.3125 15.8125 C-2.09238281 15.92207031 -2.87226563 16.03164063 -3.67578125 16.14453125 C-6.72377573 15.9549921 -7.90469556 15.20384499 -10 13 C-10.49609375 10.625 -10.49609375 10.625 -10.4375 8 C-10.43621094 7.13375 -10.43492187 6.2675 -10.43359375 5.375 C-9.3592958 -0.50944285 -5.31307141 -0.72041646 0 0 Z M-2 3 C-1.34 4.65 -0.68 6.3 0 8 C-0.99 8.495 -0.99 8.495 -2 9 C-1.67 9.66 -1.34 10.32 -1 11 C-0.34 11 0.32 11 1 11 C1 8.69 1 6.38 1 4 C0.01 3.67 -0.98 3.34 -2 3 Z M23.4375 6.5 C22.963125 6.995 22.48875 7.49 22 8 C22.33 8.99 22.66 9.98 23 11 C23.99 11 24.98 11 26 11 C26 9.02 26 7.04 26 5 C24.75923698 4.88457803 24.75923698 4.88457803 23.4375 6.5 Z M-6 8 C-6.33 8.99 -6.66 9.98 -7 11 C-6.01 11 -5.02 11 -4 11 C-4 10.01 -4 9.02 -4 8 C-4.66 8 -5.32 8 -6 8 Z M14 8 C13.67 8.99 13.34 9.98 13 11 C13.99 11 14.98 11 16 11 C16 10.01 16 9.02 16 8 C15.34 8 14.68 8 14 8 Z M28 8 C28 8.99 28 9.98 28 11 C28.99 11 29.98 11 31 11 C31 10.01 31 9.02 31 8 C30.01 8 29.02 8 28 8 Z " fill="#FFFFFF" transform="translate(282,15)"/>
<path d="M0 0 C2.4375 2 2.4375 2 4 4 C4.33 3.67 4.66 3.34 5 3 C10.52941176 2.76470588 10.52941176 2.76470588 13 4 C13.66 2.68 14.32 1.36 15 0 C21.33333333 0 27.66666667 0 34 0 C35.75282525 2.68079156 36.01311136 3.86888639 35.6875 7.125 C35 10 35 10 34 12 C27.33333333 12 20.66666667 12 14 12 C13.67 11.34 13.34 10.68 13 10 C12.34 10.66 11.68 11.32 11 12 C7.4375 11.625 7.4375 11.625 4 11 C3.67 11 3.34 11 3 11 C2.67 11.99 2.34 12.98 2 14 C-1.09173752 15.54586876 -3.59429552 15.29359521 -7 15 C-9.4375 13.4375 -9.4375 13.4375 -11 11 C-11.56288002 7.05983987 -11.60396028 4.94217804 -9.4375 1.5625 C-6.05782196 -0.60396028 -3.94016013 -0.56288002 0 0 Z M29 3 C29 4.98 29 6.96 29 9 C29.99 8.67 30.98 8.34 32 8 C31.67 6.35 31.34 4.7 31 3 C30.34 3 29.68 3 29 3 Z M-2 5 C-2.33 5.99 -2.66 6.98 -3 8 C-2.01 8 -1.02 8 0 8 C0 7.01 0 6.02 0 5 C-0.66 5 -1.32 5 -2 5 Z M7 5 C7 6.32 7 7.64 7 9 C7.99 8.67 8.98 8.34 10 8 C9.67 7.01 9.34 6.02 9 5 C8.34 5 7.68 5 7 5 Z M21 5 C22 8 22 8 22 8 Z M25 5 C26 9 26 9 26 9 Z M17 6 C18 8 18 8 18 8 Z " fill="#FFFFFF" transform="translate(116,18)"/>
<path d="M0 0 C0.763125 0.61875 1.52625 1.2375 2.3125 1.875 C4.99625809 4.05597052 4.99625809 4.05597052 8 6 C8 6.66 8 7.32 8 8 C6.88625 8.20625 5.7725 8.4125 4.625 8.625 C0.73400805 9.61628301 0.73400805 9.61628301 -0.4375 13.125 C-0.623125 14.07375 -0.80875 15.0225 -1 16 C1.64 16 4.28 16 7 16 C6 19 6 19 3.4375 20.8125 C0.64725477 22.82010187 0.64725477 22.82010187 0.6875 26.25 C0.790625 27.1575 0.89375 28.065 1 29 C3.64 28.34 6.28 27.68 9 27 C8 31 8 31 7 32 C6.95907063 34.33297433 6.95758277 36.66705225 7 39 C10.76687864 39 11.91190305 38.76462683 15 37 C15.09796875 37.69867188 15.1959375 38.39734375 15.296875 39.1171875 C15.44640625 40.02726562 15.5959375 40.93734375 15.75 41.875 C15.88921875 42.77992187 16.0284375 43.68484375 16.171875 44.6171875 C16.77983843 47.16214243 16.77983843 47.16214243 19.078125 48.3203125 C19.71234375 48.54460937 20.3465625 48.76890625 21 49 C21.66 47.02 22.32 45.04 23 43 C23.66 43 24.32 43 25 43 C25.37125 44.093125 25.7425 45.18625 26.125 46.3125 C27.4798799 49.54588489 27.97658038 49.98576455 31.1875 51.9375 C32.5796875 52.4634375 32.5796875 52.4634375 34 53 C34 50.03 34 47.06 34 44 C34.99 44.33 35.98 44.66 37 45 C37.495 46.98 37.495 46.98 38 49 C41.3 49.66 44.6 50.32 48 51 C48 51.33 48 51.66 48 52 C46.02 52 44.04 52 42 52 C42 52.66 42 53.32 42 54 C20.06118845 55.03786226 20.06118845 55.03786226 12 49 C11.37351562 48.5771875 10.74703125 48.154375 10.1015625 47.71875 C4.07558792 43.19269049 -0.6291445 36.11256649 -3 29 C-3.25518711 25.60871794 -3.23135774 22.21238144 -3.25 18.8125 C-3.270625 17.89146484 -3.29125 16.97042969 -3.3125 16.02148438 C-3.34688993 9.96455801 -2.47251335 5.53712859 0 0 Z " fill="#703E44" transform="translate(16,29)"/>
<path d="M0 0 C11 0 22 0 33 0 C33 2.64 33 5.28 33 8 C34.65 8 36.3 8 38 8 C38 5.36 38 2.72 38 0 C38.99 0 39.98 0 41 0 C41 3.63 41 7.26 41 11 C36.33333333 11 31.66666667 11 27 11 C26.01 11.33 25.02 11.66 24 12 C21.99907192 12.01389533 19.99676894 11.9421921 18 11.8125 C16.4221875 11.72935547 16.4221875 11.72935547 14.8125 11.64453125 C11.41931033 10.86692528 10.82644461 9.84811206 9 7 C8.34 7 7.68 7 7 7 C6.67 8.32 6.34 9.64 6 11 C3.66705225 11.04241723 1.33297433 11.04092937 -1 11 C-2 10 -2 10 -2.1875 7.75 C-1.98554631 4.78801254 -1.15219542 2.71426273 0 0 Z M7 3 C8.98 3.99 8.98 3.99 11 5 C11 4.34 11 3.68 11 3 C9.68 3 8.36 3 7 3 Z M16 3 C16.66 3.66 17.32 4.32 18 5 C18 4.34 18 3.68 18 3 C17.34 3 16.68 3 16 3 Z M24 3 C24 4.65 24 6.3 24 8 C24.33 8 24.66 8 25 8 C25 6.35 25 4.7 25 3 C24.67 3 24.34 3 24 3 Z M29 3 C29 4.65 29 6.3 29 8 C29.33 8 29.66 8 30 8 C30 6.35 30 4.7 30 3 C29.67 3 29.34 3 29 3 Z " fill="#FFFFFF" transform="translate(276,42)"/>
<path d="M0 0 C3.65792004 0.9180383 4.97893699 3.46059298 7.0078125 6.50390625 C7.53375 5.76140625 7.53375 5.76140625 8.0703125 5.00390625 C11.03333429 2.70995389 13.37823947 3.11502343 17.0078125 3.50390625 C19.41011052 5.02536166 19.88220387 6.14640476 20.8203125 8.81640625 C21.05441081 12.17181532 20.3341611 14.43236213 19.0078125 17.50390625 C15.86910062 19.07326219 13.46925428 18.85591728 10.0078125 18.50390625 C7.0703125 16.00390625 7.0703125 16.00390625 5.0078125 13.50390625 C4.4921875 13.99890625 3.9765625 14.49390625 3.4453125 15.00390625 C0.11984314 17.05034894 -2.15525163 16.92248107 -5.9921875 16.50390625 C-8.3036695 14.84903461 -8.91663541 13.95425594 -9.390625 11.12890625 C-9.38289062 10.26265625 -9.37515625 9.39640625 -9.3671875 8.50390625 C-9.37492188 7.63765625 -9.38265625 6.77140625 -9.390625 5.87890625 C-8.9921875 3.50390625 -8.9921875 3.50390625 -7.7109375 1.7265625 C-5.27863583 -0.00368846 -2.92672607 -0.08099795 0 0 Z M-0.9921875 3.50390625 C-0.3321875 5.81390625 0.3278125 8.12390625 1.0078125 10.50390625 C0.0178125 10.99890625 0.0178125 10.99890625 -0.9921875 11.50390625 C-0.0021875 11.50390625 0.9878125 11.50390625 2.0078125 11.50390625 C2.93846383 8.89808254 3.15698657 7.86192401 2.0703125 5.25390625 C1.7196875 4.67640625 1.3690625 4.09890625 1.0078125 3.50390625 C0.3478125 3.50390625 -0.3121875 3.50390625 -0.9921875 3.50390625 Z M-5.9921875 7.50390625 C-5.9921875 8.16390625 -5.9921875 8.82390625 -5.9921875 9.50390625 C-5.0021875 9.83390625 -4.0121875 10.16390625 -2.9921875 10.50390625 C-2.6621875 9.51390625 -2.3321875 8.52390625 -1.9921875 7.50390625 C-3.3121875 7.50390625 -4.6321875 7.50390625 -5.9921875 7.50390625 Z M10.0078125 8.50390625 C11.0078125 10.50390625 11.0078125 10.50390625 11.0078125 10.50390625 Z M16.0078125 8.50390625 C15.0178125 8.99890625 15.0178125 8.99890625 14.0078125 9.50390625 C14.0078125 10.16390625 14.0078125 10.82390625 14.0078125 11.50390625 C14.9978125 11.50390625 15.9878125 11.50390625 17.0078125 11.50390625 C16.6778125 10.51390625 16.3478125 9.52390625 16.0078125 8.50390625 Z M10.0078125 11.50390625 C11.0078125 13.50390625 11.0078125 13.50390625 11.0078125 13.50390625 Z " fill="#FFFFFF" transform="translate(208.9921875,14.49609375)"/>
<path d="M0 0 C0.78117187 0.39832031 0.78117187 0.39832031 1.578125 0.8046875 C4.61030108 2.30121311 7.67808137 3.71191743 10.75 5.125 C11.92046875 5.66382813 13.0909375 6.20265625 14.296875 6.7578125 C15.18890625 7.16773438 16.0809375 7.57765625 17 8 C17 9.65 17 11.3 17 13 C16.01 13 15.02 13 14 13 C14 12.01 14 11.02 14 10 C12.02 10 10.04 10 8 10 C8 10.99 8 11.98 8 13 C10.97 13.99 13.94 14.98 17 16 C17 17.32 17 18.64 17 20 C16.34 20 15.68 20 15 20 C15 19.01 15 18.02 15 17 C12.69 17 10.38 17 8 17 C10.54456151 19.96865509 13.48994665 21.3619751 17 23 C17 24.32 17 25.64 17 27 C16.34 27 15.68 27 15 27 C15 26.01 15 25.02 15 24 C12.69 24 10.38 24 8 24 C8 25.65 8 27.3 8 29 C7.01 28.34 6.02 27.68 5 27 C4.34 27.33 3.68 27.66 3 28 C3 26.02 3 24.04 3 22 C1.68 21.34 0.36 20.68 -1 20 C-0.01 19.01 0.98 18.02 2 17 C-0.31 17 -2.62 17 -5 17 C-5 17.99 -5 18.98 -5 20 C-5.66 20 -6.32 20 -7 20 C-6.8125 17.625 -6.8125 17.625 -6 15 C-3.11090151 13.40339294 -1.30941204 13 2 13 C2 12.01 2 11.02 2 10 C0.02 10 -1.96 10 -4 10 C-4.33 10.99 -4.66 11.98 -5 13 C-5.66 13 -6.32 13 -7 13 C-6.75 10.625 -6.75 10.625 -6 8 C-3.43689172 6.2058242 -2.16880694 6 1 6 C0.67 4.02 0.34 2.04 0 0 Z " fill="#AA751F" transform="translate(45,21)"/>
<path d="M0 0 C9.9 0 19.8 0 30 0 C30 0.99 30 1.98 30 3 C29.34 3 28.68 3 28 3 C28.103125 4.2375 28.20625 5.475 28.3125 6.75 C28.32497806 10.27505269 28.25409013 10.73217527 25.6875 13.4375 C23 15 23 15 20 16 C20.185625 15.360625 20.37125 14.72125 20.5625 14.0625 C20.706875 13.381875 20.85125 12.70125 21 12 C20.67 11.67 20.34 11.34 20 11 C19.85884839 8.32941149 19.95752893 5.67567762 20 3 C19.34 3 18.68 3 18 3 C18 5.64 18 8.28 18 11 C15.36 11 12.72 11 10 11 C10 9.68 10 8.36 10 7 C9.34 7 8.68 7 8 7 C7.34 8.32 6.68 9.64 6 11 C3.125 11.125 3.125 11.125 0 11 C-0.66 10.34 -1.32 9.68 -2 9 C-1.6875 6.625 -1.6875 6.625 -1 4 C-0.67 2.68 -0.34 1.36 0 0 Z M23 3 C23 5.31 23 7.62 23 10 C23.33 10 23.66 10 24 10 C24 7.69 24 5.38 24 3 C23.67 3 23.34 3 23 3 Z M13 7 C14 9 14 9 14 9 Z " fill="#FFFFFF" transform="translate(234,42)"/>
<path d="M0 0 C1.98 0 3.96 0 6 0 C6 1.32 6 2.64 6 4 C5.01 4.495 5.01 4.495 4 5 C4.33 5.66 4.66 6.32 5 7 C5.36105638 10.89940888 5.5400274 13.16918861 3.375 16.5 C1 18 1 18 -2 17.6875 C-2.99 17.460625 -3.98 17.23375 -5 17 C-5.99 17.2475 -5.99 17.2475 -7 17.5 C-9.82727879 18.2068197 -12.18003568 17.57681088 -15 17 C-14.88601335 15.37419034 -14.75844341 13.74932843 -14.625 12.125 C-14.55539063 11.22007813 -14.48578125 10.31515625 -14.4140625 9.3828125 C-14 7 -14 7 -12 5 C-11.319375 4.835 -10.63875 4.67 -9.9375 4.5 C-9.298125 4.335 -8.65875 4.17 -8 4 C-7.67 3.34 -7.34 2.68 -7 2 C-6.01 2 -5.02 2 -4 2 C-4 2.66 -4 3.32 -4 4 C-2.68 4 -1.36 4 0 4 C0 2.68 0 1.36 0 0 Z M0 11 C-0.66 11.66 -1.32 12.32 -2 13 C-1.01 13.33 -0.02 13.66 1 14 C0.67 13.01 0.34 12.02 0 11 Z " fill="#FFFFFF" transform="translate(266,13)"/>
<path d="M0 0 C0.03867187 1.34191406 0.03867187 1.34191406 0.078125 2.7109375 C0.61345844 15.1456517 0.61345844 15.1456517 6.59765625 25.72265625 C8.3745071 27.28047245 8.3745071 27.28047245 11 29 C10.34 29.33 9.68 29.66 9 30 C8.34 30.99 7.68 31.98 7 33 C7 31.68 7 30.36 7 29 C5.35 30.32 3.7 31.64 2 33 C0.68 32.34 -0.64 31.68 -2 31 C-2.2954439 25.97745369 -1.98514628 23.10457614 1 19 C0.071875 19.515625 -0.85625 20.03125 -1.8125 20.5625 C-5 22 -5 22 -8 21 C-8.375 18.3125 -8.375 18.3125 -8 15 C-6.184967 12.98874721 -4.20335164 11.61878896 -2 10 C-1.67 9.34 -1.34 8.68 -1 8 C-3.64 8 -6.28 8 -9 8 C-9.25 5.6875 -9.25 5.6875 -9 3 C-6.13156014 -0.08091689 -4.0507072 -0.12763422 0 0 Z " fill="#F2D62A" transform="translate(24,37)"/>
<path d="M0 0 C2.0625 0.4375 2.0625 0.4375 4 1 C4.2954439 6.02254631 3.98514628 8.89542386 1 13 C1.56589844 12.84402344 2.13179688 12.68804687 2.71484375 12.52734375 C3.81505859 12.23537109 3.81505859 12.23537109 4.9375 11.9375 C5.66839844 11.74027344 6.39929688 11.54304688 7.15234375 11.33984375 C7.76207031 11.22769531 8.37179688 11.11554687 9 11 C9.33 11.33 9.66 11.66 10 12 C9.875 15.3125 9.875 15.3125 9 19 C6.5 21.3125 6.5 21.3125 4 23 C3.67 23.66 3.34 24.32 3 25 C5.64 25 8.28 25 11 25 C10.6875 27.875 10.6875 27.875 10 31 C6.77208445 33.1519437 5.71599191 33.20086443 2 33 C1.97421875 32.10539062 1.9484375 31.21078125 1.921875 30.2890625 C1.54994585 22.36020917 0.37553976 16.15895725 -3 9 C-3.33 8.01 -3.66 7.02 -4 6 C-2.84338843 3.79192337 -1.77322566 1.77322566 0 0 Z " fill="#F3D827" transform="translate(74,21)"/>
<path d="M0 0 C1.65 0 3.3 0 5 0 C4.02505097 7.39892824 -0.97803862 13.35518704 -6.47265625 18.1640625 C-14.58371974 24.05617972 -21.50138553 26.50504557 -31.5 26.1875 C-32.32242188 26.17396484 -33.14484375 26.16042969 -33.9921875 26.14648438 C-35.99508221 26.11155016 -37.99763356 26.05776057 -40 26 C-40 25.67 -40 25.34 -40 25 C-34.39 25 -28.78 25 -23 25 C-23 24.34 -23 23.68 -23 23 C-21.68 22.34 -20.36 21.68 -19 21 C-19.33 18.36 -19.66 15.72 -20 13 C-16.125 13.875 -16.125 13.875 -15 15 C-10.85723125 15.24733137 -10.85723125 15.24733137 -7 14 C-7.433125 13.13375 -7.433125 13.13375 -7.875 12.25 C-8.91666667 10.16666667 -9.95833333 8.08333333 -11 6 C-9.01432292 6.06510417 -7.02864583 6.13020833 -5.04296875 6.1953125 C-2.68640281 6.13254462 -2.68640281 6.13254462 0 4 C0 2.68 0 1.36 0 0 Z " fill="#714042" transform="translate(81,58)"/>
<path d="M0 0 C1.32 0.33 2.64 0.66 4 1 C4 1.66 4 2.32 4 3 C5.65 3.33 7.3 3.66 9 4 C9 4.99 9 5.98 9 7 C8.34 7 7.68 7 7 7 C7 9.64 7 12.28 7 15 C4.35409986 15.02684679 1.70846904 15.04676357 -0.9375 15.0625 C-2.06961914 15.07506836 -2.06961914 15.07506836 -3.22460938 15.08789062 C-5.14994313 15.09652441 -7.07535581 15.05224333 -9 15 C-10.89128342 13.10871658 -10.2366852 10.42932274 -10.328125 7.91015625 C-10.16570312 6.96462891 -10.16570312 6.96462891 -10 6 C-6.81237635 3.87491756 -4.73487777 3.4979837 -1 3 C-0.67 2.01 -0.34 1.02 0 0 Z " fill="#FFFFFF" transform="translate(224,38)"/>
<path d="M0 0 C2.9375 0.375 2.9375 0.375 6 1 C8.13079691 5.26159382 7.04502317 11.40763702 7 16 C1.72 16 -3.56 16 -9 16 C-9 12.37 -9 8.74 -9 5 C-6.525 5.495 -6.525 5.495 -4 6 C-2.68 4.02 -1.36 2.04 0 0 Z M1 4 C2.485 4.99 2.485 4.99 4 6 C4 5.34 4 4.68 4 4 C3.01 4 2.02 4 1 4 Z M0 8 C0 9.65 0 11.3 0 13 C0.66 12.67 1.32 12.34 2 12 C1.67 10.68 1.34 9.36 1 8 C0.67 8 0.34 8 0 8 Z " fill="#FFFFFF" transform="translate(206,37)"/>
<path d="M0 0 C2.75806231 2.39032067 2.98155872 3.85246979 3.4375 7.5 C3 11 3 11 1.25 13.375 C-2.27007299 15.91727494 -2.27007299 15.91727494 -5 16 C-8.46188447 14.59876105 -9.72863589 13.53092979 -11.4375 10.1875 C-12.11023084 6.3753586 -11.72467858 4.44935716 -10 1 C-6.75105651 -1.66877501 -3.88893895 -1.15840735 0 0 Z M-7 2 C-7 2.33 -7 2.66 -7 3 C-5.35 3 -3.7 3 -2 3 C-2 2.67 -2 2.34 -2 2 C-3.65 2 -5.3 2 -7 2 Z " fill="#FFFFFF" transform="translate(248,15)"/>
<path d="M0 0 C0.33 0.66 0.66 1.32 1 2 C4.02934491 2.65772428 4.02934491 2.65772428 7 3 C7.33 4.32 7.66 5.64 8 7 C6.5 8.5625 6.5 8.5625 4 10 C1.22562457 9.96823234 -1.25286467 9.50364148 -4 9 C-3.154375 9.928125 -2.30875 10.85625 -1.4375 11.8125 C0.00390625 13.39453125 0.00390625 13.39453125 1 15 C0 18 0 18 -2 19 C-4.875 19.375 -4.875 19.375 -8 19 C-10.375 16.5 -10.375 16.5 -12 14 C-9.45671442 11.45671442 -6.91576519 8.91968308 -4.3125 6.4375 C-2.28828954 4.30387276 -1.09664677 2.69176935 0 0 Z " fill="#EFD42A" transform="translate(74,55)"/>
<path d="M0 0 C2.67863922 -0.21718696 4.41628148 -0.35440053 6.75 1.0625 C8.56171151 3.87065285 8.59095689 6.72386767 9 10 C5.89632503 10.14515677 2.79351973 10.23400853 -0.3125 10.3125 C-1.63411133 10.3753418 -1.63411133 10.3753418 -2.98242188 10.43945312 C-5.4167921 10.48573393 -7.61096754 10.47493333 -10 10 C-12.125 7.625 -12.125 7.625 -13 5 C-12.6875 2.6875 -12.6875 2.6875 -12 1 C-8.03939073 1.27004154 -6.46285393 1.48571786 -3.75 4.5 C-3.1725 5.325 -2.595 6.15 -2 7 C-1.34 7.33 -0.68 7.66 0 8 C0 5.36 0 2.72 0 0 Z " fill="#F4D521" transform="translate(50,10)"/>
<path d="M0 0 C0.763125 0.61875 1.52625 1.2375 2.3125 1.875 C4.99625809 4.05597052 4.99625809 4.05597052 8 6 C8 6.66 8 7.32 8 8 C6.88625 8.20625 5.7725 8.4125 4.625 8.625 C0.73400805 9.61628301 0.73400805 9.61628301 -0.4375 13.125 C-0.623125 14.07375 -0.80875 15.0225 -1 16 C1.64 16 4.28 16 7 16 C6 19 6 19 3.5 20.875 C0.68075768 23.27135597 0.30026863 24.3967764 0 28 C-0.66 28 -1.32 28 -2 28 C-4.38626134 20.84121597 -4.21887147 10.04247544 -1.5 2.9375 C-1.005 1.968125 -0.51 0.99875 0 0 Z " fill="#693122" transform="translate(16,29)"/>
<path d="M0 0 C0.66 0.33 1.32 0.66 2 1 C0 3 0 3 -2 4 C-2.33 4.99 -2.66 5.98 -3 7 C-3.66 7 -4.32 7 -5 7 C-4.175 7.94875 -3.35 8.8975 -2.5 9.875 C0 12.75 0 12.75 0 15 C-1.216875 14.938125 -2.43375 14.87625 -3.6875 14.8125 C-7.63529288 14.8403996 -9.95330298 15.30149693 -13 18 C-15.80217886 23.38457898 -16.50700151 27.91916451 -16.6875 33.9375 C-16.72166016 34.71673828 -16.75582031 35.49597656 -16.79101562 36.29882812 C-16.8726071 38.19874393 -16.93799885 40.09934403 -17 42 C-17.33 42 -17.66 42 -18 42 C-18.54728755 28.04416747 -18.06593376 18.19493862 -8.8828125 6.984375 C-6.17801254 4.13367297 -3.31643383 2.09815201 0 0 Z " fill="#815661" transform="translate(30,12)"/>
<path d="M0 0 C0.66 0 1.32 0 2 0 C2.37125 1.093125 2.7425 2.18625 3.125 3.3125 C4.4798799 6.54588489 4.97658038 6.98576455 8.1875 8.9375 C9.115625 9.288125 10.04375 9.63875 11 10 C11 7.03 11 4.06 11 1 C11.99 1.33 12.98 1.66 14 2 C14.33 3.32 14.66 4.64 15 6 C18.3 6.66 21.6 7.32 25 8 C25 8.33 25 8.66 25 9 C23.02 9 21.04 9 19 9 C19 9.66 19 10.32 19 11 C16.3118751 11.08164159 13.626277 11.14079668 10.9375 11.1875 C9.80924805 11.22520508 9.80924805 11.22520508 8.65820312 11.26367188 C3.33368144 11.33282151 -0.24346434 10.40669334 -5 8 C-4.01 7.67 -3.02 7.34 -2 7 C-1.855625 6.030625 -1.71125 5.06125 -1.5625 4.0625 C-1 1 -1 1 0 0 Z " fill="#59202A" transform="translate(39,72)"/>
<path d="M0 0 C0 0.33 0 0.66 0 1 C-1.98 1 -3.96 1 -6 1 C-6 3.64 -6 6.28 -6 9 C-6.66 9 -7.32 9 -8 9 C-8.78375 8.175 -9.5675 7.35 -10.375 6.5 C-12.87859195 3.54022989 -12.87859195 3.54022989 -17 4 C-16.67 6.64 -16.34 9.28 -16 12 C-16.515625 11.855625 -17.03125 11.71125 -17.5625 11.5625 C-20.68509571 10.84190099 -23.82550692 10.42733561 -27 10 C-27 7 -27 7 -24.5625 4.4375 C-17.50455656 -1.02459142 -8.49099058 -0.25860885 0 0 Z " fill="#551F27" transform="translate(55,8)"/>
<path d="M0 0 C0.66 0 1.32 0 2 0 C2.2475 0.763125 2.495 1.52625 2.75 2.3125 C5.03072591 7.21606071 9.27068734 8.74282805 14 11 C14 12.32 14 13.64 14 15 C13.34 15 12.68 15 12 15 C12 14.01 12 13.02 12 12 C9.69 12 7.38 12 5 12 C5 13.65 5 15.3 5 17 C4.01 16.34 3.02 15.68 2 15 C1.01 15.495 1.01 15.495 0 16 C0 10.72 0 5.44 0 0 Z " fill="#A06A1E" transform="translate(48,33)"/>
<path d="M0 0 C1.12894876 0.93274109 2.25300876 1.87140122 3.375 2.8125 C4.00148438 3.33457031 4.62796875 3.85664062 5.2734375 4.39453125 C7 6 7 6 9 9 C8.34 9 7.68 9 7 9 C6.01 10.485 6.01 10.485 5 12 C5 10.68 5 9.36 5 8 C3.35 9.32 1.7 10.64 0 12 C-1.32 11.34 -2.64 10.68 -4 10 C-4.25 6.6875 -4.25 6.6875 -4 3 C-2 1.0625 -2 1.0625 0 0 Z " fill="#ECCF29" transform="translate(26,58)"/>
<path d="M0 0 C0.99837891 -0.03738281 1.99675781 -0.07476563 3.02539062 -0.11328125 C10.43274502 -0.20211028 10.43274502 -0.20211028 14.32421875 2.7734375 C16.1875 5.375 16.1875 5.375 17.1875 7.375 C15.1512551 6.35687755 13.12389045 5.34030388 11.125 4.25 C9.08613452 3.16920664 9.08613452 3.16920664 6.1875 3.375 C5.8575 4.035 5.5275 4.695 5.1875 5.375 C2.8125 6.1875 2.8125 6.1875 0.1875 6.375 C-0.8125 5.375 -1.8125 4.375 -2.8125 3.375 C-6.35544857 3.07347246 -9.41694966 3.33021528 -12.8125 4.375 C-12.8125 3.385 -12.8125 2.395 -12.8125 1.375 C-8.95013565 -0.55618218 -4.24908819 0.05965535 0 0 Z " fill="#BD8E1D" transform="translate(49.8125,18.625)"/>
<path d="M0 0 C1.32 0.66 2.64 1.32 4 2 C3.67 3.32 3.34 4.64 3 6 C3.99 5.34 4.98 4.68 6 4 C7.70884005 5.62339805 9.37446717 7.29319053 11 9 C11 9.66 11 10.32 11 11 C7.37 11 3.74 11 0 11 C0 10.01 0 9.02 0 8 C-0.66 8 -1.32 8 -2 8 C-1.34 5.36 -0.68 2.72 0 0 Z " fill="#FBE123" transform="translate(44,60)"/>
<path d="M0 0 C0.33 0 0.66 0 1 0 C1.38991022 1.93455454 1.76145349 3.87281828 2.125 5.8125 C2.33382812 6.89144531 2.54265625 7.97039063 2.7578125 9.08203125 C3 12 3 12 1 15 C-0.5 13.625 -0.5 13.625 -2 12 C-2 11.34 -2 10.68 -2 10 C-3.32 9.34 -4.64 8.68 -6 8 C-6 4 -6 4 -4.5 2.25 C-4.005 1.8375 -3.51 1.425 -3 1 C-2.01 1.66 -1.02 2.32 0 3 C0 2.01 0 1.02 0 0 Z " fill="#B9891D" transform="translate(53,52)"/>
<path d="M0 0 C1.8125 1.5 1.8125 1.5 3 3 C1.68 5.31 0.36 7.62 -1 10 C-1.33 9.34 -1.66 8.68 -2 8 C-5.02934491 7.34227572 -5.02934491 7.34227572 -8 7 C-8.33 5.68 -8.66 4.36 -9 3 C-5.97244082 0.30883629 -4.06495202 -0.62537723 0 0 Z " fill="#F5D924" transform="translate(27,26)"/>
<path d="M0 0 C0 3.63 0 7.26 0 11 C-0.66 10.67 -1.32 10.34 -2 10 C-1.67 9.34 -1.34 8.68 -1 8 C-3.64 8 -6.28 8 -9 8 C-9.25 5.6875 -9.25 5.6875 -9 3 C-5.92422161 -0.30361383 -4.78675414 0 0 0 Z " fill="#F8DE26" transform="translate(24,37)"/>
<path d="M0 0 C2.48680414 2.21049257 2.48137586 4.27072175 2.6875 7.5 C1.6875 8.5 1.6875 8.5 -0.625 8.8125 C-4.13320873 8.40456875 -5.14118964 7.21413795 -7.3125 4.5 C-7.6425 3.51 -7.9725 2.52 -8.3125 1.5 C-3.03941552 -0.65717092 -3.03941552 -0.65717092 0 0 Z " fill="#F9DE29" transform="translate(60.3125,71.5)"/>
<path d="M0 0 C0.33 0.66 0.66 1.32 1 2 C3.64 2 6.28 2 9 2 C8.6875 4.875 8.6875 4.875 8 8 C5 10 5 10 0 10 C0 6.7 0 3.4 0 0 Z " fill="#FAE229" transform="translate(76,44)"/>
<path d="M0 0 C2.64 0.33 5.28 0.66 8 1 C8 3.97 8 6.94 8 10 C5.37344067 9.64505955 3.42031739 9.27538036 1.1875 7.8125 C-0.51995571 5.20638339 -0.20267097 3.0400645 0 0 Z " fill="#FBE027" transform="translate(42,72)"/>
<path d="M0 0 C4.58463341 3.79417937 6.58375896 8.20545171 7.22265625 14.02978516 C7.62561209 19.01422028 7.83531555 24.00267881 8 29 C7.01 29 6.02 29 5 29 C2.78831775 31.94236782 2.78831775 31.94236782 1 35 C1 32 1 32 2.5 28.6875 C5.03005202 22.13841797 5.39890988 14.04533246 3.09765625 7.390625 C2.15204494 5.54651469 1.08614985 3.76499351 0 2 C0 1.34 0 0.68 0 0 Z " fill="#C99D20" transform="translate(69,28)"/>
<path d="M0 0 C0.33 0.66 0.66 1.32 1 2 C4.02934491 2.65772428 4.02934491 2.65772428 7 3 C7.33 4.32 7.66 5.64 8 7 C5.64031256 9.09749995 4.45383006 9.96905704 1.25 10.1875 C0.5075 10.125625 -0.235 10.06375 -1 10 C-2.23076923 4.58461538 -2.23076923 4.58461538 -1.0625 1.625 C-0.5365625 0.820625 -0.5365625 0.820625 0 0 Z " fill="#F1D830" transform="translate(74,55)"/>
<path d="M0 0 C0.66 0.33 1.32 0.66 2 1 C-0.77773858 4.350413 -2.29942331 5.85671736 -6.62890625 6.7421875 C-8.57603516 6.80792969 -8.57603516 6.80792969 -10.5625 6.875 C-11.86316406 6.93429688 -13.16382813 6.99359375 -14.50390625 7.0546875 C-17.27950487 7.01127031 -19.39386181 6.86208134 -22 6 C-22.33 7.32 -22.66 8.64 -23 10 C-23 8.68 -23 7.36 -23 6 C-23.66 5.67 -24.32 5.34 -25 5 C-24.01 4.67 -23.02 4.34 -22 4 C-22 3.34 -22 2.68 -22 2 C-21.34 2 -20.68 2 -20 2 C-20 2.99 -20 3.98 -20 5 C-12.18553178 4.7649784 -6.54891502 4.36594335 0 0 Z " fill="#C79C21" transform="translate(64,66)"/>
<path d="M0 0 C0.33 1.32 0.66 2.64 1 4 C3.64 4 6.28 4 9 4 C9 4.66 9 5.32 9 6 C7.7934375 6.8971875 7.7934375 6.8971875 6.5625 7.8125 C3.70289198 10.2536288 3.3046813 11.34382438 3 15 C2.34 15 1.68 15 1 15 C-0.09506492 11.71480525 -0.09960608 9.26336585 -0.0625 5.8125 C-0.05347656 4.72582031 -0.04445313 3.63914063 -0.03515625 2.51953125 C-0.02355469 1.68808594 -0.01195312 0.85664062 0 0 Z " fill="#541A25" transform="translate(13,42)"/>
<path d="M0 0 C0.33 1.65 0.66 3.3 1 5 C1.66 4.67 2.32 4.34 3 4 C4.5625 5.1875 4.5625 5.1875 6 7 C5.6875 9.6875 5.6875 9.6875 5 12 C4.34 11.34 3.68 10.68 3 10 C3 9.01 3 8.02 3 7 C1.68 7.33 0.36 7.66 -1 8 C-1 6.02 -1 4.04 -1 2 C-2.98 2 -4.96 2 -7 2 C-7.33 2.99 -7.66 3.98 -8 5 C-8.66 5 -9.32 5 -10 5 C-10 3.35 -10 1.7 -10 0 C-6.30581799 -1.231394 -3.7943739 -0.64432764 0 0 Z " fill="#C3951D" transform="translate(48,43)"/>
<path d="M0 0 C0.69931641 -0.01224609 1.39863281 -0.02449219 2.11914062 -0.03710938 C6.53311655 -0.04949659 10.08881584 0.55960817 14.1875 2.1875 C14.1875 2.5175 14.1875 2.8475 14.1875 3.1875 C9.5675 3.1875 4.9475 3.1875 0.1875 3.1875 C0.1875 5.8275 0.1875 8.4675 0.1875 11.1875 C-0.4725 10.8575 -1.1325 10.5275 -1.8125 10.1875 C-1.4825 7.5475 -1.1525 4.9075 -0.8125 2.1875 C-7.2475 2.6825 -7.2475 2.6825 -13.8125 3.1875 C-9.18811795 0.10457863 -5.3852479 0.00488236 0 0 Z " fill="#815754" transform="translate(49.8125,6.8125)"/>
<path d="M0 0 C0 1.65 0 3.3 0 5 C-0.99 5 -1.98 5 -3 5 C-3 4.01 -3 3.02 -3 2 C-3.9075 2.020625 -4.815 2.04125 -5.75 2.0625 C-10.62201835 1.96880734 -10.62201835 1.96880734 -13 1 C-13.33 0.01 -13.66 -0.98 -14 -2 C-8.34264585 -3.55577239 -5.20333134 -2.24281523 0 0 Z " fill="#CFA421" transform="translate(62,29)"/>
<path d="M0 0 C1.60332791 -0.08121924 3.20784026 -0.13929134 4.8125 -0.1875 C6.15248047 -0.23970703 6.15248047 -0.23970703 7.51953125 -0.29296875 C10.41647515 0.04918998 11.22555028 0.75393573 13 3 C11.824375 3.0928125 11.824375 3.0928125 10.625 3.1875 C9.75875 3.455625 8.8925 3.72375 8 4 C6.62533375 6.47636012 6.62533375 6.47636012 6 9 C5.34 9 4.68 9 4 9 C3.525625 7.88625 3.05125 6.7725 2.5625 5.625 C1.74693537 3.73289006 0.92143645 1.84287291 0 0 Z " fill="#5E2427" transform="translate(55,10)"/>
<path d="M0 0 C0 1.98 0 3.96 0 6 C-2 7 -2 7 -5.5625 6.25 C-6.696875 5.8375 -7.83125 5.425 -9 5 C-9.33 4.01 -9.66 3.02 -10 2 C-3.375 0 -3.375 0 0 0 Z " fill="#561E29" transform="translate(86,52)"/>
<path d="M0 0 C0.33 0 0.66 0 1 0 C1.05390357 2.93774463 1.0936255 5.87450232 1.125 8.8125 C1.14175781 9.64587891 1.15851563 10.47925781 1.17578125 11.33789062 C1.18222656 12.14033203 1.18867187 12.94277344 1.1953125 13.76953125 C1.20578613 14.50792236 1.21625977 15.24631348 1.22705078 16.00708008 C1 18 1 18 -1 21 C-1 19.02 -1 17.04 -1 15 C-1.66 15 -2.32 15 -3 15 C-2.67 13.02 -2.34 11.04 -2 9 C-4.64 9 -7.28 9 -10 9 C-9.67 8.34 -9.34 7.68 -9 7 C-6.36 7.33 -3.72 7.66 -1 8 C-0.67 5.36 -0.34 2.72 0 0 Z " fill="#916553" transform="translate(87,37)"/>
<path d="M0 0 C3.3 0 6.6 0 10 0 C9.1875 3.4375 9.1875 3.4375 8 7 C7.01 7.33 6.02 7.66 5 8 C0 2.25 0 2.25 0 0 Z " fill="#5A2027" transform="translate(70,64)"/>
<path d="M0 0 C0.66 0.66 1.32 1.32 2 2 C1.34 2 0.68 2 0 2 C0 3.65 0 5.3 0 7 C-1.98 7 -3.96 7 -6 7 C-6.33 7.99 -6.66 8.98 -7 10 C-7.66 10 -8.32 10 -9 10 C-8.75 7.625 -8.75 7.625 -8 5 C-5.43689172 3.2058242 -4.16880694 3 -1 3 C-0.67 2.01 -0.34 1.02 0 0 Z " fill="#C1941D" transform="translate(47,24)"/>
<path d="M0 0 C1.32 0.66 2.64 1.32 4 2 C-4.99764371 7.06400048 -14.01995765 6.39137421 -24 6 C-24 5.67 -24 5.34 -24 5 C-18.39 5 -12.78 5 -7 5 C-7 4.34 -7 3.68 -7 3 C-5.02 3 -3.04 3 -1 3 C-0.67 2.01 -0.34 1.02 0 0 Z " fill="#875D6A" transform="translate(65,78)"/>
<path d="M0 0 C0.33 0 0.66 0 1 0 C1 3.3 1 6.6 1 10 C0.67 8.68 0.34 7.36 0 6 C-2.64 6 -5.28 6 -8 6 C-8 5.34 -8 4.68 -8 4 C-7.05125 3.896875 -6.1025 3.79375 -5.125 3.6875 C-1.70892499 3.31460705 -1.70892499 3.31460705 0 0 Z " fill="#521723" transform="translate(86,39)"/>
<path d="M0 0 C0.33 0.66 0.66 1.32 1 2 C1.99 2 2.98 2 4 2 C3.34 4.31 2.68 6.62 2 9 C1.01 8.67 0.02 8.34 -1 8 C-1.8125 6.1875 -1.8125 6.1875 -2 4 C-1.0625 1.75 -1.0625 1.75 0 0 Z " fill="#FBE42B" transform="translate(74,55)"/>
<path d="M0 0 C3 2 3 2 3.75 5.0625 C3.8325 6.031875 3.915 7.00125 4 8 C3 9 3 9 0.4375 9.0625 C-0.366875 9.041875 -1.17125 9.02125 -2 9 C-1.67 8.34 -1.34 7.68 -1 7 C-0.01 7 0.98 7 2 7 C1.01 6.34 0.02 5.68 -1 5 C-0.67 3.35 -0.34 1.7 0 0 Z " fill="#EACD2B" transform="translate(59,71)"/>
<path d="M0 0 C2.97 0.33 5.94 0.66 9 1 C9.33 1.99 9.66 2.98 10 4 C8.1746875 3.9690625 8.1746875 3.9690625 6.3125 3.9375 C3.08022678 3.93175884 0.15065259 4.21233685 -3 5 C-2.01 3.35 -1.02 1.7 0 0 Z " fill="#5D2326" transform="translate(20,23)"/>
<path d="M0 0 C1.32 0.66 2.64 1.32 4 2 C2.79618552 4.49361571 1.54571278 6.68143083 0 9 C-0.66 8.67 -1.32 8.34 -2 8 C-1.34 5.36 -0.68 2.72 0 0 Z " fill="#E1BE1D" transform="translate(44,60)"/>
<path d="M0 0 C5.625 -0.25 5.625 -0.25 9 2 C9 3.32 9 4.64 9 6 C8.34 6 7.68 6 7 6 C7 5.01 7 4.02 7 3 C4.69 3 2.38 3 0 3 C0 2.01 0 1.02 0 0 Z " fill="#BB8E1F" transform="translate(53,42)"/>
<path d="M0 0 C2.31 0 4.62 0 7 0 C6.67 0.99 6.34 1.98 6 3 C6.99 3.66 7.98 4.32 9 5 C3.375 5.25 3.375 5.25 0 3 C0 2.01 0 1.02 0 0 Z " fill="#F4D522" transform="translate(40,38)"/>
<path d="M0 0 C0.66 0 1.32 0 2 0 C2 3.3 2 6.6 2 10 C-0.5722047 8.71389765 -1.00974907 7.66606019 -2 5 C-1.5 1.5 -1.5 1.5 0 0 Z " fill="#5B2224" transform="translate(29,66)"/>
<path d="M0 0 C2.1875 0.3125 2.1875 0.3125 4 1 C4 3.31 4 5.62 4 8 C3.21625 7.360625 2.4325 6.72125 1.625 6.0625 C-0.79539281 4.01857687 -0.79539281 4.01857687 -3 3 C-1.75 1.4375 -1.75 1.4375 0 0 Z " fill="#EED128" transform="translate(74,21)"/>
<path d="M0 0 C0 0.66 0 1.32 0 2 C-0.66 2 -1.32 2 -2 2 C-2 2.66 -2 3.32 -2 4 C-3.98 4.99 -3.98 4.99 -6 6 C-6.66 4.68 -7.32 3.36 -8 2 C-4.77208445 -0.1519437 -3.71599191 -0.20086443 0 0 Z " fill="#E7C51D" transform="translate(33,17)"/>
<path d="M0 0 C0.99 0.33 1.98 0.66 3 1 C3.8125 2.8125 3.8125 2.8125 4 5 C3.0625 7.25 3.0625 7.25 2 9 C1.34 8.67 0.68 8.34 0 8 C0 5.36 0 2.72 0 0 Z " fill="#622724" transform="translate(50,73)"/>
<path d="M0 0 C1.65 0 3.3 0 5 0 C5 0.66 5 1.32 5 2 C5.66 2 6.32 2 7 2 C7.33 3.98 7.66 5.96 8 8 C6 6.625 6 6.625 4 5 C4 4.34 4 3.68 4 3 C2.68 2.34 1.36 1.68 0 1 C0 0.67 0 0.34 0 0 Z " fill="#F0D41C" transform="translate(47,59)"/>
<path d="M0 0 C0.66 0 1.32 0 2 0 C2.33 1.65 2.66 3.3 3 5 C2.01 5 1.02 5 0 5 C-0.28875 5.639375 -0.5775 6.27875 -0.875 6.9375 C-2 9 -2 9 -4 10 C-4.125 7.125 -4.125 7.125 -4 4 C-2.66666667 2.66666667 -1.33333333 1.33333333 0 0 Z " fill="#B07D1E" transform="translate(49,50)"/>
<path d="M0 0 C1.32 0.99 2.64 1.98 4 3 C3.67 3.99 3.34 4.98 3 6 C3 5.34 3 4.68 3 4 C2.34 4 1.68 4 1 4 C1 4.66 1 5.32 1 6 C-0.32 5.67 -1.64 5.34 -3 5 C-2.625 3.0625 -2.625 3.0625 -2 1 C-1.34 0.67 -0.68 0.34 0 0 Z " fill="#FDE626" transform="translate(73,24)"/>
<path d="M0 0 C2.64 0 5.28 0 8 0 C7.34 1.32 6.68 2.64 6 4 C5.01 4 4.02 4 3 4 C1.3125 2 1.3125 2 0 0 Z " fill="#FADC1C" transform="translate(46,20)"/>
<path d="M0 0 C0.33 0 0.66 0 1 0 C1 2.64 1 5.28 1 8 C-1.375 7.6875 -1.375 7.6875 -4 7 C-4.66 6.01 -5.32 5.02 -6 4 C-4.35 4 -2.7 4 -1 4 C-0.67 2.68 -0.34 1.36 0 0 Z " fill="#E7C728" transform="translate(49,74)"/>
<path d="M0 0 C2.625 0.375 2.625 0.375 5 1 C5 1.66 5 2.32 5 3 C6.9600281 4.63676257 6.9600281 4.63676257 9 6 C4.6109185 5.48964169 1.66291938 4.47785723 -2 2 C-1.34 1.34 -0.68 0.68 0 0 Z " fill="#83595E" transform="translate(32,77)"/>
<path d="M0 0 C2.475 0.495 2.475 0.495 5 1 C5 2.65 5 4.3 5 6 C4.01 6 3.02 6 2 6 C2 5.01 2 4.02 2 3 C1.34 3 0.68 3 0 3 C0 2.01 0 1.02 0 0 Z " fill="#B1821B" transform="translate(57,28)"/>
<path d="M0 0 C0.66 0 1.32 0 2 0 C2 1.65 2 3.3 2 5 C-0.875 5.625 -0.875 5.625 -4 6 C-4.66 5.34 -5.32 4.68 -6 4 C-4.02 3.67 -2.04 3.34 0 3 C0 2.01 0 1.02 0 0 Z " fill="#CFA323" transform="translate(47,31)"/>
<path d="M0 0 C0.66 0 1.32 0 2 0 C2 0.99 2 1.98 2 3 C2.99 3.33 3.98 3.66 5 4 C3.35 4 1.7 4 0 4 C-0.33 5.32 -0.66 6.64 -1 8 C-1 6.68 -1 5.36 -1 4 C-1.66 3.67 -2.32 3.34 -3 3 C-2.01 2.67 -1.02 2.34 0 2 C0 1.34 0 0.68 0 0 Z " fill="#B68821" transform="translate(42,68)"/>
<path d="M0 0 C2.31 0.33 4.62 0.66 7 1 C6.01 2.485 6.01 2.485 5 4 C3.0625 3.6875 3.0625 3.6875 1 3 C0.67 2.01 0.34 1.02 0 0 Z " fill="#632D26" transform="translate(76,54)"/>
<path d="M0 0 C-0.8125 2.4375 -0.8125 2.4375 -2 5 C-2.99 5.33 -3.98 5.66 -5 6 C-4.625 3.5625 -4.625 3.5625 -4 1 C-2 0 -2 0 0 0 Z " fill="#65343F" transform="translate(74,73)"/>
<path d="M0 0 C1.35432675 1.31200404 2.68733482 2.64631404 4 4 C4 4.33 4 4.66 4 5 C2.02 5 0.04 5 -2 5 C-1.34 3.35 -0.68 1.7 0 0 Z " fill="#FAE020" transform="translate(49,53)"/>
<path d="M0 0 C2.97 0.495 2.97 0.495 6 1 C6.33 2.65 6.66 4.3 7 6 C6.34 6 5.68 6 5 6 C5 5.01 5 4.02 5 3 C4.01 3 3.02 3 2 3 C2 2.34 2 1.68 2 1 C1.34 0.67 0.68 0.34 0 0 Z " fill="#A36F20" transform="translate(55,35)"/>
<path d="M0 0 C0.99 0 1.98 0 3 0 C3.33 1.65 3.66 3.3 4 5 C1.13275314 4.42655063 0.1385485 4.1385485 -2 2 C-1.34 2 -0.68 2 0 2 C0 1.34 0 0.68 0 0 Z " fill="#6A2F22" transform="translate(35,15)"/>
<path d="M0 0 C3.37503669 1.1858237 5.64722731 2.27573689 8 5 C6.68 4.67 5.36 4.34 4 4 C3.67 4.66 3.34 5.32 3 6 C0 1.125 0 1.125 0 0 Z " fill="#815D5F" transform="translate(65,10)"/>
<path d="M0 0 C0.66 0.33 1.32 0.66 2 1 C2 2.98 2 4.96 2 7 C0.02 5.35 -1.96 3.7 -4 2 C-2.125 0.9375 -2.125 0.9375 0 0 Z " fill="#6A2D25" transform="translate(46,10)"/>
<path d="M0 0 C2 3 2 3 2 5 C-0.9375 4.625 -0.9375 4.625 -4 4 C-4.33 3.34 -4.66 2.68 -5 2 C-3.68 2.33 -2.36 2.66 -1 3 C-0.67 2.01 -0.34 1.02 0 0 Z " fill="#DEBA26" transform="translate(40,65)"/>
<path d="M0 0 C2.97 0.495 2.97 0.495 6 1 C6 1.66 6 2.32 6 3 C4.68 3 3.36 3 2 3 C1.67 3.66 1.34 4.32 1 5 C0.67 3.35 0.34 1.7 0 0 Z " fill="#CCA222" transform="translate(51,35)"/>
<path d="M0 0 C2 1 2 1 2 1 Z " fill="#FFFFFF" transform="translate(184,34)"/>
<path d="" fill="#FFFFFF" transform="translate(0,0)"/>
</svg>
